<?xml version="1.0" encoding="UTF-8"?> <svg xmlns="http://www.w3.org/2000/svg" xmlns:xlink="http://www.w3.org/1999/xlink" xmlns:v="https://vecta.io/nano" viewBox="0 0 1179.33 1282.72"><path d="M1163.78 905.78l-50.2 29.77-578.82-328.57 51.54-27.42 577.48 326.22zm-1161 260.14C1.54 1115.2 181.6 998.25 181.6 998.25l-74.4-111.08 201.1-115.43 502 291.7-179.67 103.1-156.28 15.34L271 1282.7z" fill="#f4f4f4"></path><path d="M96.9 653.08l5 229.42c0 4.87 12.2 8 12.88 0s2.74-217.45 2.74-217.45zM619.82 950.8l4.57 210.9c0 4.9 12.2 8 12.88 0s4.16-210.46 4.16-210.46a75.88 75.88 0 0 1-21.61-.44zm174.58-85.37l4.3 197.28c0 4.87 12.2 8 12.88 0s4.16-210.46 4.16-210.46z" fill="#e8e8e8"></path><path d="M828.27 816.6L309.87 516.7c-29.7-20.43-51.07-15.78-69.63-6.5s-142.05 78-159.77 88.2a51.41 51.41 0 0 0-11 8.37l-7.6-2.1v16.25a15.26 15.26 0 0 0 0 3.15h0c.55 5.3 3.94 10.53 11.24 15.18l34.08 19.82v228.1c3.38.74 7.18-.3 7.56-4.67.7-8 2.74-217.44 2.74-217.45l472.76 275a82.7 82.7 0 0 0 40.37 11.71v214.76c3.1.37 6.3-.86 6.64-4.84.68-7.8 4-200.17 4.16-210.45a62.12 62.12 0 0 0 17.57-4.68c13.88-6.17 112.82-67.13 146-87.62v208.6c3.1.37 6.3-.86 6.64-4.83.7-8 4.16-210.45 4.16-210.46h0c10.93-5.2 12.1-11.23 12.5-19.42h0l-.04-16.23z" fill="#444242"></path><path d="M73.1 623c-20.43-13-10.36-30.64 7.36-40.85s141.2-78.92 159.77-88.2 39.92-13.93 69.63 6.5 495.8 288.75 509.73 299 11.14 29.7-8.36 39S675.68 922.9 659 930.32s-43.64 8.36-68.7-6.5L73.1 623z" fill="#e8e8e8"></path><path d="M484.46 731.06c9.64 5.85 5.5 7.92 0 11S445.22 767.2 439 770.64s-10 5.85-23.4-1.72l-169.3-97.74c-7.23-4.82-9.12-7.06 1.2-14.63s39.53-26.3 43.88-29.08c5-3.2 6.45-5.25 16.6 2.3 11.88 8.84 176.48 101.28 176.48 101.28z" fill="#d5e3ee"></path><g fill="#89acce"><path d="M490.23 737.08c-.12 1.9-2.73 3.28-5.77 5-5.5 3.1-39.24 25.12-45.43 28.57s-10 5.85-23.4-1.72L246.3 671.18c-3.88-2.58-6.2-4.43-6-6.75h0v6.45c.06 2.13 2.34 3.9 6 6.32 7.23 4.82 155.9 90.17 169.33 97.74s17.2 5.16 23.4 1.72 39.92-25.47 45.43-28.57c3-1.7 5.6-3.08 5.77-5h0v-6.07zm-230.77-66.25l9.46-6.63 17.9 10.58-9.46 6.72-17.9-10.67z"></path><use xlink:href="#B"></use><use xlink:href="#B" x="17.85" y="10.38"></use><use xlink:href="#B" x="35.7" y="20.78"></use><use xlink:href="#B" x="53.54" y="31.18"></use><use xlink:href="#B" x="71.4" y="41.56"></use><use xlink:href="#B" x="89.24" y="51.95"></use><use xlink:href="#B" x="107.1" y="62.34"></use><use xlink:href="#B" x="3.3" y="-11.78"></use><use xlink:href="#C"></use><use xlink:href="#B" x="38.72" y="8.83"></use><use xlink:href="#D"></use><path d="M350.23 694.76l7.7-5.48 14.55 8.7-7.7 5.46-14.55-8.67z"></path><use xlink:href="#B" x="91.84" y="39.75"></use><use xlink:href="#C" x="88.55" y="51.53"></use><use xlink:href="#B" x="127.26" y="60.36"></use><use xlink:href="#D" x="88.55" y="51.53"></use><path d="M286.8 644.5l7.7-5.48 14.55 8.7-7.7 5.46-14.55-8.68z"></path><use xlink:href="#B" x="28.42" y="-10.52"></use><use xlink:href="#D" x="-10.29" y="-19.35"></use><use xlink:href="#B" x="63.84" y="10.1"></use><use xlink:href="#B" x="81.55" y="20.41"></use><use xlink:href="#C" x="78.26" y="32.19"></use><path d="M393.06 706.34l7.7-5.48 14.54 8.7-7.7 5.46-14.56-8.67z"></path><use xlink:href="#D" x="78.25" y="32.19"></use><use xlink:href="#B" x="152.38" y="61.63"></use><use xlink:href="#B" x="14.42" y="-32.69"></use><use xlink:href="#D" x="-24.29" y="-41.52"></use><use xlink:href="#B" x="49.84" y="-12.08"></use><use xlink:href="#B" x="67.55" y="-1.77"></use><use xlink:href="#C" x="64.25" y="10.01"></use><path d="M379.06 684.16l7.7-5.48 14.55 8.7-7.7 5.46-14.55-8.67z"></path><use xlink:href="#D" x="64.25" y="10.01"></use><use xlink:href="#B" x="138.38" y="39.45"></use><use xlink:href="#B" x="156.1" y="49.76"></use><path d="M401.34 738.37l7.7-5.48 35.4 21.15-7.7 5.46-35.4-21.13zm47.84-13.3l7.7-5.48 23.7 14-7.7 5.47-23.7-14zm-9.04 21.03l9.04-6.43-2.74-1.77 8-5.63 13.12 7.77-18.37 11.6-9.04-5.55zm-65.4-7.73l3.85-2.75 14.55 8.7-3.85 2.73-14.55-8.68zm16.52 9.73l3.85-2.75 14.54 8.7-3.84 2.73-14.55-8.67zm17.47 10.15l3.85-2.75 14.54 8.7-3.84 2.73-14.55-8.67zm-11.36-14.17l3.85-2.74 14.54 8.7-3.84 2.73-14.55-8.68zm-115.53-60l9.46-6.63 83.44 49.3-9.46 6.72-83.44-49.4z"></path></g><path d="M1083.28 810.64c35.48 17 51.57-11.37 51.57-36V419.82c0-46.28 9.13-70.18-34.45-100.26-52.48-36.23-513.68-293.37-543.48-312.1-30.66-19.28-48.6 1.16-47.6 35.22.8 27.75 538.5 751 573.97 767.97z" fill="#333"></path><path d="M509.1 410.56c0 47.82 7.7 80.2 60.16 106.43s473.56 274.57 509 291.54 37-18.5 37-43.2V410.56c0-46.28 9.26-57.07-44.73-91S580.05 34.18 549.2 17.22s-40.1 4.62-40.1 32.4z" fill="#d1d1d1"></path><path d="M1070.58 319.55c-54-33.94-490.52-285.37-521.37-302.33s-40.1 4.62-40.1 32.4v361l606.2 354.78V410.56c0-46.28 9.25-57.07-44.73-91z" fill="#444242"></path><path d="M538.4 381.25l546.9 317.46V372L538.4 48.07v333.18z" fill="#fff"></path><path d="M325.63 540.45l6.55 55c0 8 13.25 14.4 29.6 14.4s29.6-6.45 29.6-14.4l6.55-55z" fill="#89acce"></path><ellipse cx="361.78" cy="540.45" rx="36.15" ry="17.55" fill="#afd2ef"></ellipse><ellipse cx="361.78" cy="540.45" rx="29.6" ry="14.41" fill="#492817"></ellipse><path d="M379 538c0 5.7-8.2 10.3-18.33 10.3s-18.33-4.6-18.33-10.3-3.14-47 18.33-47c23.55 0 18.33 41.3 18.33 47z" fill="#75b077"></path><path d="M360.64 548.3c10.13 0 18.33-4.6 18.33-10.3 0-4.55 3.33-31.85-7.38-42.6 11.8 54.48-29.28 42.6-29.28 42.6 0 5.7 8.2 10.3 18.33 10.3z" fill="#4f995e"></path><use xlink:href="#E" fill="#985351"></use><path d="M422.62 1079.37c-.8-5.23-2.6-6.37-2.6-6.37 2.72 18.14-44.44 24-51.24 24.5s-28.57 12.24-41 11.34c-9.2-.67-11.15-9.35-11.36-21.37-3.1 16.16-1.1 26.93 11.36 28.52 15.12 1.93 35.6-12.8 42.62-13.26s55.04-5.2 52.23-23.35z" fill="#8a3d40"></path><use xlink:href="#E" x="69.54" y="39.61" fill="#985351"></use><path d="M492.16 1119c-.8-5.23-2.6-6.37-2.6-6.37 2.72 18.14-44.44 24-51.24 24.5s-28.57 12.24-41 11.34c-9.2-.67-11.15-9.35-11.36-21.37-3.1 16.16-1.1 26.93 11.36 28.52 15.12 1.93 35.6-12.8 42.62-13.26s55.07-5.24 52.23-23.35z" fill="#8a3d40"></path><path d="M397.34 1060.1v37.38c0 4.23 24.8 10.88 33.86-4.23v-46.38z" fill="#ffaa83"></path><path d="M389.1 1073s1.28-4.85 4.23-4.08c8.42 2.18 43.6-15.8 50-10.05l.88 17s-25 29.5-56.5 11.37z" fill="#e5c2a6"></path><path d="M392.43,1061.9v8.65s21.84,11.67,47.54-9.87V1043.2Z" fill="#ceab8b"></path><path d="M55.47 786.25c3.58-42.18 25.64-43.1 35.62-37.64s118.17 75.24 124.78 86c7.94 12.92 24 141.5 68.4 140.73 35.37-.6 30.63-40.22 54.2-50.24s120-43.37 140.9-37.93 26.58 27.06 24.77 46.06-5.13 86.85-20 89.57c-4.46.8-208 95.84-294.16 51.4S65.7 988.4 61.16 916.12s-5.7-129.87-5.7-129.87z" fill="#395e66"></path><path d="M475.94 895.84c-20.86-5.44-108.83 31.74-132.42 41.77s-20.86 47.1-65.3 48-64.85-131.5-72.56-144.2C199.1 830.62 95 764.33 85 758.9s-29 1.8-29.93 32.65a1122.06 1122.06 0 0 0 0 134.86c1.9 30.22 9.68 55 24.37 76.9L.1 1159.38c-1.08 5.37 4.72 10.15 8.95 5 3.65-4.4 63.9-117.15 80.34-148 20.86 24.67 51.75 46 94.48 68 19.4 10 45.15 12.5 73.4 10.35h-.35l8.13 183.25c1.8 5.44 9.73 6.8 11 0s-3.14-184.9-3.14-184.9h0c47.75-6.17 100.45-23.56 141.28-39.52l55.35 126.6c3 4.27 7.84.92 7.35-3.36s-48.54-119.84-51.76-127.58c34.2-13.85 57.82-25.66 59-26.55 3.63-2.72 12.7-66.2 14.5-85.2s-1.82-36.18-22.68-41.62z" fill="#387d7a"></path><path d="M271 1282.7c2.3.08 4.48-1.28 5.1-4.6 1.26-6.8-3.14-184.9-3.14-184.9l-8.72.9zm203.35-100.8c-1.5.76-3.4.5-4.84-1.6-3-4.27-55.35-126.6-55.35-126.6l6-2.34zM2.77 1165.92c1.83 1.12 4.25 1 6.3-1.5 4.22-5.1 80.34-148 80.34-148l-5.3-7.36z" fill="#395e66"></path><path d="M459.2 785.5c-5.68-8.93 19.88-42.7 39.65-35 18.28 7.1 13 21.68.23 36s-23.13 25.32-39.88-1z" fill="#9dc0e2"></path><path d="M260.1 865.9s96.14-42.63 113.37-42.63 29.32 4.84 30.53 34.16l-139.8 72z" fill="#bc9c85"></path><path d="M284.27 975.35c35.37-.6 30.63-40.22 54.2-50.24 13.9-5.9 53.07-19.9 87.2-29.3-.1-27.54-6.56-32.93-21.68-38.37s-111.25 41.12-127.7 50.2l-26.13 37.7c8.98 17.66 20.14 30.24 34.1 30z" fill="#ceab8b"></path><path d="M329.9 777.47s26.77 29 34.48 34 51.87 6.3 74-12.7c15.53-13.33 10.84-12 15.23-21.6 7.4-16.25 21.23-31.13 40.28-25.23s-4.4 30.07-16.53 43.3c-13.3 14.5-75.12 48-103.8 54.77s-43.5-14.3-67.82-50.9zm-21.3-62.2a210.81 210.81 0 0 0 5.92-22.6c1.8-10 26.3-29.17 33.1-28.64s17.7 5.52 10.88 21.16-34 19.8-34.94 48.1z" fill="#e79a74"></path><path d="M215.87 834.62c5.27 8.6 14 68.78 34.28 110.7 15.72-3.22 25.67-14.14 23.23-29.18-12.7-80.36 14-96.6 24.2-109.5 8.16-10.28 12.67 9.44 16.33 8.77 18.14-3.33 28.3-16 28.12-29.93-.06-4.38-9.4-18.35-10-24.2-3.93-40.5-35.67-60.46-64.1-61.48s-33.26-15.3-52.6-28-51.16-20-56.84 6c-7.23 33.13-6.92 73.25-3.3 112.07 28.98 19.42 57.4 39.37 60.67 44.73z" fill="#5b5b5b"></path><path d="M218.83 674.22l8-8.35s21.77 22.27 39.9 22.27l6 13.34s-36.53 4.78-53.9-27.26zm90.8 136.58c1.6 2.6 3 4.86 4.27 4.62 18.14-3.33 28.3-16 28.12-29.93a15.77 15.77 0 0 0-1.66-5.14c-7.64 26.2-26.15 29.92-30.73 30.45z" fill="#444242"></path><path d="M303.06 577.15s12.35-5.26 6.7-25.9c-5.16-18.86-38.35-13.2-67.47-10.32-27.3 2.68-49.3 2.44-56.58 40.5-12.26 63.88 44.75 77.7 51.7 81.32s65.65-85.6 65.65-85.6z" fill="#492817"></path><path d="M232.8 671.34a96.24 96.24 0 0 1 4.62-8.59c1.8-2.72 15.22-15.22 14.2-29.08-1.6-4.44-4.23 1.56-7.74 0-2.63-1.17-3.82-3.23-3.2-11.56 1.26-16.82 9.82-9.6 12.54-9s4.4-29.5 24.13-35.18 27.9-3 30.3 9.22c4.85 24.8.1 86.65-22.26 83.93-17.23-9-12-2.3-15.3 3.9a113.36 113.36 0 0 0-5.79 13s-10.1.43-31.5-16.63z" fill="#e79a74"></path><g fill="#e40000"><path d="M317.12 601.44L309 598.8l.18 3.4 5.72 1.68s3.1 0 2.22 6.8c-1.08 9.22-5.86 11.16-8.22 11.56-.1 1.05-.2 2.1-.32 3.1 0 0 9.42.9 11.1-15.1 1.05-8.82-2.57-8.82-2.57-8.82z"></path><path d="M248.52 607.2l68.6-5.76c2.95 0 4 7-.12 9.6-2.7 1.73-63.8 2.07-63.8 2.07s-5.47-2.53-7.7-1.92c.01.01-1.18-3.64 3.04-4z"></path></g><path d="M449.3 48.07v89.98l592.97 340v-83.4L449.3 48.07z" fill="#32936f"></path><path d="M601.77 183.73l-58.53-35c-3.1-1.84-5.24-7.4-4.77-12.32h0c.46-4.93 3.36-7.46 6.45-5.6l58.53 35c3.1 1.84 5.24 7.4 4.77 12.32h0c-.46 4.88-3.36 7.45-6.45 5.6zm57.6 24.95h0c.46-4.93-1.7-10.48-4.77-12.32l-28.46-17c-3.1-1.84-6 .68-6.45 5.6h0c-.46 4.93 1.7 10.48 4.77 12.32l28.46 17c3.1 1.84 6-.68 6.45-5.62zM800.8 293.2h0c.46-4.93-1.7-10.48-4.77-12.32l-25-15c-3.1-1.84-6 .68-6.45 5.6h0c-.46 4.93 1.7 10.48 4.77 12.32l25 15c3.1 1.85 6-.67 6.45-5.6zm-48.7-29.1h0c.46-4.93-1.7-10.48-4.77-12.32l-67.2-40.16c-3.1-1.84-6 .68-6.45 5.6h0c-.46 4.93 1.7 10.48 4.77 12.32l67.2 40.16c3.1 1.85 6-.7 6.45-5.6zm225.6 144.42l23.2 13.87c3.1 1.84 6-.68 6.45-5.6h0c.46-4.93-1.7-10.48-4.77-12.32l-23.2-13.87c-3.1-1.84-6 .68-6.45 5.6h0c-.46 4.93 1.68 10.47 4.77 12.32zm-67.9-40.6l41.47 24.78c3.1 1.84 6-.68 6.45-5.6h0c.46-4.93-1.7-10.48-4.77-12.32L911.47 350c-3.1-1.84-6 .68-6.45 5.6h0c-.46 4.93 1.7 10.48 4.78 12.32zm-93.65-56l67.2 40.16c3.1 1.84 6-.68 6.45-5.6h0c.46-4.93-1.7-10.48-4.77-12.32L817.82 294c-3.1-1.84-6 .68-6.45 5.6h0c-.46 4.97 1.7 10.5 4.78 12.4z" fill="#fff"></path><path d="M570.8 270.98v89.98l592.97 340.02v-83.4L570.8 270.98z" fill="#4a4e69"></path><path d="M661.15 375.7l-58.53-35c-3.1-1.84-5.24-7.4-4.77-12.32h0c.46-4.93 3.36-7.46 6.45-5.6l58.53 35c3.1 1.84 5.24 7.4 4.77 12.32h0c-.46 4.9-3.37 7.46-6.45 5.6zm57.6 24.95h0c.46-4.93-1.7-10.48-4.77-12.32l-28.46-17c-3.1-1.84-6 .68-6.45 5.6h0c-.46 4.93 1.7 10.48 4.77 12.32l28.46 17c3.08 1.85 6-.68 6.45-5.6zM860.2 485.2h0c.46-4.93-1.7-10.48-4.77-12.32l-25-15c-3.1-1.84-6 .68-6.45 5.6h0c-.46 4.93 1.7 10.48 4.77 12.32l25 15c3.1 1.85 6-.68 6.45-5.6zm-48.7-29.1h0c.46-4.93-1.7-10.48-4.77-12.32l-67.2-40.16c-3.1-1.84-6 .68-6.45 5.6h0c-.46 4.93 1.7 10.48 4.77 12.32L805 461.7c3.14 1.84 6-.7 6.5-5.6zm225.6 144.4l23.2 13.87c3.1 1.84 6-.68 6.45-5.6h0c.46-4.93-1.7-10.48-4.77-12.32l-23.2-13.87c-3.1-1.84-6 .68-6.45 5.6h0c-.47 4.94 1.68 10.48 4.77 12.32zm-67.9-40.58l41.47 24.78c3.1 1.84 6-.68 6.45-5.6h0c.46-4.93-1.7-10.48-4.77-12.32L970.85 542c-3.1-1.84-6 .68-6.45 5.6h0c-.46 4.92 1.7 10.46 4.77 12.3zm-93.65-56l67.2 40.16c3.1 1.84 6-.68 6.45-5.6h0c.46-4.93-1.7-10.48-4.77-12.32L877.2 486c-3.1-1.84-6 .68-6.45 5.6h0c-.46 4.96 1.7 10.5 4.77 12.4z" fill="#fff"></path><g fill="#395e66"><path d="M1042.27 478.06l14.75-9.47v-82.14l-14.75 8.2v83.4z"></path><path d="M449.3 48.07l592.97 346.58 14.75-8.2-591.9-344.3-15.82 5.93z"></path></g><g fill="#22223b"><path d="M1163.78 700.98l15.55-8.28v-83l-15.55 7.87v83.4z"></path><path d="M570.8 270.98l592.97 346.6 15.55-7.87-594.96-342.9-13.56 4.18z"></path></g><path d="M449.65 400.35L331.46 335c-7.86-4.34-14.27-15.42-14.25-24.62l.36-138.3c0-9.2 6.47-13.17 14.33-8.83l118.2 65.35c7.86 4.34 14.27 15.42 14.25 24.62l-.35 138.3c0 9.2-6.5 13.17-14.35 8.83z" fill="#8e0000"></path><path d="M425.74 416.15l-118.2-65.3c-7.86-4.34-14.27-15.42-14.25-24.62l.36-138.3c0-9.2 6.47-13.17 14.33-8.83l118.2 65.3c7.86 4.34 14.27 15.42 14.25 24.62l-.36 138.3c-.07 9.2-6.47 13.17-14.33 8.83z" fill="#e40000"></path><path d="M313.62 271.34l26.37 28-.6 12-36.92-40.5.54-11.07 38.8 1.7-.6 12zm37.1 44.8l21.57-55.46 7.64 4.26-21.64 55.43zm65.87 12.62l-26.44-27.93.6-12 36.92 40.6-.53 11-38.8-1.7.6-12z" fill="#fff"></path><path d="M1137.63 281l-118.2-65.3c-7.86-4.34-14.27-15.42-14.25-24.62l.36-138.3c0-9.2 6.47-13.17 14.33-8.83l118.2 65.3c7.86 4.34 14.27 15.42 14.25 24.62l-.32 138.3c-.06 9.2-6.5 13.17-14.37 8.85z" fill="#a62639"></path><path d="M1113.72 296.77l-118.2-65.3c-7.86-4.34-14.27-15.42-14.25-24.62l.36-138.3c0-9.2 6.47-13.17 14.33-8.83l118.2 65.3c7.86 4.34 14.27 15.42 14.25 24.62l-.36 138.3c-.06 9.22-6.48 13.2-14.34 8.84z" fill="#db324d"></path><path d="M1023.72 105.55l9.32 4.3-3 5.62a96.8 96.8 0 0 0-9.52 26.37 154.35 154.35 0 0 0-2.82 21.55 162.33 162.33 0 0 0 1.72 36.5 270.29 270.29 0 0 0 6.47 27.8l-9.14-4.23L1014 216a147.94 147.94 0 0 1-5.37-19.11c-3.2-14.6-4.45-28-3.67-40.4a91.1 91.1 0 0 1 7.26-31.18 92.41 92.41 0 0 1 11.5-19.77zm7.53 70.45l46.87 21.7-1 16.28-46.87-21.7zm1.8-28.77l46.87 21.77-1 16.28-46.93-21.73zm70.65 54.94a101.31 101.31 0 0 1-8.4 34.8c-2.76 6.12-5.22 10.44-7.4 13.2l-3.5 4.62-9.14-4.23a133.41 133.41 0 0 0 9.51-20.4c3.23-9.28 5.3-20.27 6.1-32.9a180 180 0 0 0 0-22.86 171.2 171.2 0 0 0-5.75-33.44l-2.15-8 9.32 4.3a211.54 211.54 0 0 1 8.41 29 129.9 129.9 0 0 1 3.01 35.9z" fill="#fff"></path><path d="M938 178.52l-76.3-42.17c-5.08-2.8-9.22-10-9.2-15.9l.23-89.32c0-5.94 4.18-8.5 9.26-5.7l76.33 42.17c5.08 2.8 9.22 10 9.2 15.9l-.23 89.32c-.02 5.94-4.2 8.5-9.3 5.7z" fill="#22223b"></path><path d="M922.58 188.73l-76.33-42.18c-5.08-2.8-9.22-10-9.2-15.9l.23-89.32c0-5.94 4.18-8.5 9.26-5.7l76.33 42.17c5.08 2.8 9.22 10 9.2 15.9l-.23 89.3c-.02 6-4.18 8.53-9.26 5.73z" fill="#4a4e69"></path><path d="M878.72 75.2L892.6 83l-.25 25.15L914 120.3l-.16 16.1-21.67-12.17-.25 25.27-13.87-7.8.25-25.27-21.67-12.17.16-16.1 21.67 12.17z" fill="#fff"></path><path d="M572.8 705.68v46.06c0 9 13.3 16.34 29.68 16.34s29.68-7.32 29.68-16.34v-46.06z" fill="#89acce"></path><ellipse cx="602.47" cy="705.68" rx="29.68" ry="16.34" fill="#afd2ef"></ellipse><path d="M602.47 720.1c11.2 0 20.9-3.6 25.7-8.86-2.56-7.36-13.1-12.88-25.7-12.88s-23.13 5.52-25.7 12.88c4.8 5.26 14.5 8.86 25.7 8.86z" fill="#492817"></path><path d="M620.36 722a3.3 3.3 0 0 0-3.3 3.3c0 .82 0 1.42 1.83 2.26 4.77 2.17 10.9 4.7 10.73 7.8l-.06 21.68c0 2.3-7.13-3.24-9.2-4.3-1.63-.82-3.3 1.48-3.3 3.3 0 2.9 11 7.5 11 7.5 3.7 1.13 6.44-1.4 6.44-5l.1-25.85c.02-3.56-13.07-10.7-14.23-10.7z" fill="#afd2ef"></path><use xlink:href="#F" fill="#b3b3b3"></use><use xlink:href="#F" y="-2.42" fill="#ccc"></use><use xlink:href="#F" y="-5.69" fill="#e6e6e6"></use><use xlink:href="#F" y="-8.79" fill="#f2f2f2"></use><use xlink:href="#F" y="-10.86" fill="#fff"></use><defs><path id="B" d="M276.1 665.32l7.7-5.48 14.54 8.7-7.7 5.46-14.55-8.67z"></path><path id="C" d="M297.1 663.84l7.7-5.48 14.54 8.7-7.7 5.47-14.55-8.68z"></path><path id="D" d="M332.52 684.45l7.7-5.48 14.54 8.7-7.7 5.46-14.55-8.68z"></path><path id="E" d="M327.8 1052.13s-10.73 3.17-11.2 21.77-1.2 34 11.2 34.92 34.16-10.88 41-11.34 54-6.35 51.24-24.5-16.33-20.86-34.46-15.42-19.62-7.7-23.88-7.7z"></path><path id="F" d="M610.77 882.32l-65.5-32.8 83.6-52.1 65.5 32.8-83.6 52.1z"></path></defs></svg> 